:FULLY-SPECIFIED
:FORCE-ALL-JOINTS-BE-3DOF
:DEGREES
102
root 7.30973 16.7241 -26.8018 3.19364 10.7534 -3.56861
lfemur -26.2882 -0.315786 -12.0072
ltibia 38.9659 -0 0
lfoot -17.5949 -5.47292 -0.0224154
ltoes 23.939 -0 0
rfemur -35.6722 -3.90391 5.24755
rtibia 77.3563 -0 0
rfoot 21.7683 15.3228 3.19798
rtoes 13.6521 -0 0
lowerback 1.98282 1.60766 0.402836
upperback -0.600066 2.19974 1.8023
thorax -1.74562 1.09834 1.59212
lowerneck -10.5752 -4.62521 2.37749
upperneck -1.36145 -6.4276 0.944001
head 1.30544 -3.1865 -0.377624
lclavicle -1.05232e-14 -1.78906e-15 0
lhumerus -46.0209 -10.2339 93.5297
lradius 48.4314 -0 0
lwrist 14.1142 0 0
lhand 5.0041 7.81819 0.147557
lfingers 7.12502 -0 0
lthumb 30.3549 35.1593 0.0870226
rclavicle -1.05232e-14 -1.78906e-15 0
rhumerus -41.7514 1.42758 -72.8743
rradius 49.4191 -0 0
rwrist 4.45775 0 0
rhand -22.1456 -16.6996 0.000378287
rfingers 7.12502 -0 0
rthumb 4.2682 -46.6366 0.000365604
103
root 7.36495 16.7259 -26.7633 2.79281 11.1344 -3.43113
lfemur -25.6268 -0.856364 -12.1846
ltibia 38.5742 -0 0
lfoot -17.5282 -6.03868 -0.0177984
ltoes 24.1696 -0 0
rfemur -37.063 -4.07839 4.2068
rtibia 80.321 -0 0
rfoot 24.7029 17.0758 2.52837
rtoes 14.9328 -0 0
lowerback 2.27486 1.4874 0.223771
upperback -0.5242 2.03567 1.86483
thorax -1.84349 1.02008 1.74578
lowerneck -10.5891 -4.67779 2.32431
upperneck -1.14303 -6.49556 0.914056
head 1.37776 -3.21776 -0.384967
lclavicle -1.05232e-14 -1.78906e-15 0
lhumerus -46.1858 -10.3525 93.6509
lradius 48.6307 -0 0
lwrist 14.3769 0 0
lhand 5.83577 8.11634 0.117145
lfingers 7.12502 -0 0
lthumb 31.1514 35.343 0.0690897
rclavicle -1.05232e-14 -1.78906e-15 0
rhumerus -42.0048 1.37445 -71.952
rradius 49.6869 -0 0
rwrist 4.31098 0 0
rhand -22.1426 -16.4871 0.0003004
rfingers 7.12502 -0 0
rthumb 4.2711 -46.424 0.000290328
104
root 7.42018 16.7277 -26.7248 2.39238 11.5163 -3.2962
lfemur -24.9636 -1.39486 -12.3682
ltibia 38.1825 -0 0
lfoot -17.4616 -6.60443 -0.0125232
ltoes 24.4002 -0 0
rfemur -38.4508 -4.27798 3.17036
rtibia 83.2857 -0 0
rfoot 27.6143 18.7913 1.77035
rtoes 16.2135 -0 0
lowerback 2.56727 1.36806 0.0441043
upperback -0.44852 1.87152 1.92714
thorax -1.94156 0.942092 1.89957
lowerneck -10.603 -4.73038 2.27115
upperneck -0.924545 -6.5634 0.883846
head 1.45009 -3.24901 -0.39235
lclavicle -1.05232e-14 -1.78906e-15 0
lhumerus -46.3511 -10.4708 93.7725
lradius 48.8301 -0 0
lwrist 14.6397 0 0
lhand 6.66727 8.41401 0.0824094
lfingers 7.12502 -0 0
lthumb 31.9478 35.5264 0.0486055
rclavicle -1.05232e-14 -1.78906e-15 0
rhumerus -42.2591 1.32542 -71.0296
rradius 49.9548 -0 0
rwrist 4.16421 0 0
rhand -22.1396 -16.2747 0.000211389
rfingers 7.12502 -0 0
rthumb 4.274 -46.2115 0.000204301
105
root 7.4754 16.7295 -26.6862 1.99231 11.8992 -3.16381
lfemur -24.2984 -1.93118 -12.5581
ltibia 37.7909 -0 0
lfoot -17.395 -7.17018 -0.00659016
ltoes 24.6307 -0 0
rfemur -39.8351 -4.50252 2.13878
rtibia 86.2504 -0 0
rfoot 30.5008 20.4656 0.926602
rtoes 17.4943 -0 0
lowerback 2.86003 1.24963 -0.136161
upperback -0.373025 1.70729 1.98922
thorax -2.03984 0.864365 2.05349
lowerneck -10.6169 -4.78298 2.218
upperneck -0.705992 -6.63113 0.853372
head 1.52243 -3.28026 -0.399773
lclavicle -1.05232e-14 -1.78906e-15 0
lhumerus -46.5167 -10.5888 93.8944
lradius 49.0295 -0 0
lwrist 14.9024 0 0
lhand 7.49858 8.71114 0.0433579
lfingers 7.12502 -0 0
lthumb 32.7441 35.7095 0.025574
rclavicle -1.05232e-14 -1.78906e-15 0
rhumerus -42.5141 1.28048 -70.1069
rradius 50.2226 -0 0
rwrist 4.01744 0 0
rhand -22.1366 -16.0622 0.000111255
rfingers 7.12502 -0 0
rthumb 4.27689 -45.9989 0.000107525
106
root 7.53062 16.7313 -26.6477 1.59258 12.283 -3.03397
lfemur -23.6313 -2.46527 -12.7543
ltibia 37.3992 0 0
lfoot -17.3285 -7.73592 0
ltoes 24.8613 0 0
rfemur -41.2156 -4.75181 1.11259
rtibia 89.2151 0 0
rfoot 33.361 22.0951 0
rtoes 18.775 0 0
lowerback 3.15315 1.13213 -0.317021
upperback -0.297715 1.54298 2.05108
thorax -2.13833 0.786902 2.20754
lowerneck -10.6307 -4.8356 2.16485
upperneck -0.487372 -6.69874 0.822634
head 1.59477 -3.31149 -0.407235
lclavicle -1.05232e-14 -1.78906e-15 0
lhumerus -46.6826 -10.7064 94.0168
lradius 49.2289 0 0
lwrist 15.1652 0 0
lhand 8.32967 9.00768 0
lfingers 7.12502 0 0
lthumb 33.5404 35.8923 0
rclavicle -1.05232e-14 -1.78906e-15 0
rhumerus -42.7698 1.23965 -69.1841
rradius 50.4904 0 0
rwrist 3.87067 0 0
rhand -22.1336 -15.8497 0
rfingers 7.12502 0 0
rthumb 4.27979 -45.7864 0
107
root 7.55364 16.7379 -26.6372 1.04764 12.0542 -2.81653
lfemur -22.675 -1.93712 -13.1555
ltibia 37.0238 -0 0
lfoot -17.1993 -7.85205 -0.00262057
ltoes 25.1682 -0 0
rfemur -42.6103 -6.07044 2.28348
rtibia 87.2617 -0 0
rfoot 31.7729 22.0855 0.00273441
rtoes 16.3092 -0 0
lowerback 3.72562 0.976848 -0.51641
upperback -0.0424382 1.329 1.9916
thorax -2.17086 0.679623 2.28477
lowerneck -10.7091 -4.67111 2.10743
upperneck -0.401215 -6.47771 0.848772
head 1.6409 -3.19957 -0.38003
lclavicle -6.60959e-15 2.14687e-14 0
lhumerus -46.42 -10.9422 93.9294
lradius 49.3052 -0 0
lwrist 15.0775 0 0
lhand 8.26374 8.8646 0.00164672
lfingers 7.12502 -0 0
lthumb 33.4777 35.7624 0.00142223
rclavicle -6.60959e-15 2.14687e-14 0
rhumerus -42.6091 0.738792 -68.4824
rradius 51.2916 -0 0
rwrist 3.24381 0 0
rhand -20.6109 -15.9393 -0.0243964
rfingers 7.12502 -0 0
rthumb 5.74165 -45.7188 0.0176456
108
root 7.57666 16.7444 -26.6267 0.502266 11.8274 -2.59706
lfemur -21.7227 -1.40237 -13.5477
ltibia 36.6485 -0 0
lfoot -17.07 -7.96819 -0.00497914
ltoes 25.4751 -0 0
rfemur -44.0355 -7.35998 3.48952
rtibia 85.3084 -0 0
rfoot 30.1847 22.0758 0.00520141
rtoes 13.8434 -0 0
lowerback 4.2986 0.823566 -0.717331
upperback 0.21304 1.11528 1.93117
thorax -2.20353 0.572389 2.36206
lowerneck -10.7877 -4.50669 2.0498
upperneck -0.314995 -6.25672 0.875233
head 1.68708 -3.08768 -0.352739
lclavicle -6.60959e-15 2.14687e-14 0
lhumerus -46.1568 -11.1777 93.8407
lradius 49.3816 -0 0
lwrist 14.9899 0 0
lhand 8.19781 8.72153 0.00312881
lfingers 7.12502 -0 0
lthumb 33.415 35.6325 0.00270226
rclavicle -6.60959e-15 2.14687e-14 0
rhumerus -42.4546 0.236006 -67.7822
rradius 52.0928 -0 0
rwrist 2.61695 0 0
rhand -19.0881 -16.0296 -0.0464028
rfingers 7.12502 -0 0
rthumb 7.20353 -45.6507 0.0335596
109
root 7.59967 16.751 -26.6163 -0.0435408 11.6026 -2.37558
lfemur -20.7742 -0.861185 -13.931
ltibia 36.2731 -0 0
lfoot -16.9407 -8.08433 -0.00707571
ltoes 25.782 -0 0
rfemur -45.4924 -8.619 4.73139
rtibia 83.355 -0 0
rfoot 28.5966 22.0661 0.00739909
rtoes 11.3776 -0 0
lowerback 4.8721 0.672302 -0.919769
upperback 0.468728 0.901835 1.86979
thorax -2.23634 0.465198 2.43941
lowerneck -10.8664 -4.34236 1.99195
upperneck -0.228707 -6.03577 0.902018
head 1.7333 -2.9758 -0.325359
lclavicle -6.60959e-15 2.14687e-14 0
lhumerus -45.893 -11.4127 93.7509
lradius 49.4579 -0 0
lwrist 14.9022 0 0
lhand 8.13188 8.57845 0.00444625
lfingers 7.12502 -0 0
lthumb 33.3523 35.5025 0.00384009
rclavicle -6.60959e-15 2.14687e-14 0
rhumerus -42.3062 -0.268629 -67.0833
rradius 52.8939 -0 0
rwrist 1.99008 0 0
rhand -17.5653 -16.1203 -0.0660035
rfingers 7.12502 -0 0
rthumb 8.66543 -45.5822 0.0477317
110
root 7.62269 16.7575 -26.6058 -0.589797 11.3799 -2.1521
lfemur -19.8295 -0.313747 -14.3051
ltibia 35.8978 -0 0
lfoot -16.8115 -8.20048 -0.00891025
ltoes 26.089 -0 0
rfemur -46.9817 -9.84599 6.00973
rtibia 81.4017 -0 0
rfoot 27.0085 22.0563 0.00932577
rtoes 8.91176 -0 0
lowerback 5.44611 0.523073 -1.1237
upperback 0.72463 0.688667 1.80746
thorax -2.2693 0.358052 2.51683
lowerneck -10.9453 -4.17811 1.93389
upperneck -0.14235 -5.81486 0.929126
head 1.77957 -2.86395 -0.297892
lclavicle -6.60959e-15 2.14687e-14 0
lhumerus -45.6286 -11.6473 93.66
lradius 49.5342 -0 0
lwrist 14.8145 0 0
lhand 8.06594 8.43536 0.00559903
lfingers 7.12502 -0 0
lthumb 33.2895 35.3726 0.00483571
rclavicle -6.60959e-15 2.14687e-14 0
rhumerus -42.164 -0.775035 -66.3857
rradius 53.6951 -0 0
rwrist 1.36322 0 0
rhand -16.0425 -16.2116 -0.0831846
rfingers 7.12502 -0 0
rthumb 10.1273 -45.5134 0.0601525
